<mxfile host="Electron" agent="Mozilla/5.0 (Windows NT 10.0; Win64; x64) AppleWebKit/537.36 (KHTML, like Gecko) draw.io/24.7.8 Chrome/128.0.6613.36 Electron/32.0.1 Safari/537.36" version="24.7.8">
  <diagram name="Page-1" id="jVfaQhG7YMb-c4zK-Wap">
    <mxGraphModel dx="1222" dy="786" grid="0" gridSize="10" guides="1" tooltips="1" connect="1" arrows="1" fold="1" page="0" pageScale="1" pageWidth="850" pageHeight="1100" math="0" shadow="0">
      <root>
        <mxCell id="0" />
        <mxCell id="1" parent="0" />
        <mxCell id="nFvOYQT18xwnlwj62LHd-1" value="User" style="shape=umlLifeline;perimeter=lifelinePerimeter;whiteSpace=wrap;container=1;dropTarget=0;collapsible=0;recursiveResize=0;outlineConnect=0;portConstraint=eastwest;newEdgeStyle={&quot;edgeStyle&quot;:&quot;elbowEdgeStyle&quot;,&quot;elbow&quot;:&quot;vertical&quot;,&quot;curved&quot;:0,&quot;rounded&quot;:0};participant=umlActor;verticalAlign=bottom;labelPosition=center;verticalLabelPosition=top;align=center;size=65;" vertex="1" parent="1">
          <mxGeometry x="20" y="20" width="35" height="615" as="geometry" />
        </mxCell>
        <mxCell id="nFvOYQT18xwnlwj62LHd-2" value="Main" style="shape=umlLifeline;perimeter=lifelinePerimeter;whiteSpace=wrap;container=1;dropTarget=0;collapsible=0;recursiveResize=0;outlineConnect=0;portConstraint=eastwest;newEdgeStyle={&quot;edgeStyle&quot;:&quot;elbowEdgeStyle&quot;,&quot;elbow&quot;:&quot;vertical&quot;,&quot;curved&quot;:0,&quot;rounded&quot;:0};size=65;" vertex="1" parent="1">
          <mxGeometry x="220" y="20" width="150" height="615" as="geometry" />
        </mxCell>
        <mxCell id="nFvOYQT18xwnlwj62LHd-3" value="Admin" style="shape=umlLifeline;perimeter=lifelinePerimeter;whiteSpace=wrap;container=1;dropTarget=0;collapsible=0;recursiveResize=0;outlineConnect=0;portConstraint=eastwest;newEdgeStyle={&quot;edgeStyle&quot;:&quot;elbowEdgeStyle&quot;,&quot;elbow&quot;:&quot;vertical&quot;,&quot;curved&quot;:0,&quot;rounded&quot;:0};size=65;" vertex="1" parent="1">
          <mxGeometry x="420" y="20" width="150" height="615" as="geometry" />
        </mxCell>
        <mxCell id="nFvOYQT18xwnlwj62LHd-4" value="Nilai" style="shape=umlLifeline;perimeter=lifelinePerimeter;whiteSpace=wrap;container=1;dropTarget=0;collapsible=0;recursiveResize=0;outlineConnect=0;portConstraint=eastwest;newEdgeStyle={&quot;edgeStyle&quot;:&quot;elbowEdgeStyle&quot;,&quot;elbow&quot;:&quot;vertical&quot;,&quot;curved&quot;:0,&quot;rounded&quot;:0};size=65;" vertex="1" parent="1">
          <mxGeometry x="620" y="20" width="150" height="615" as="geometry" />
        </mxCell>
        <mxCell id="nFvOYQT18xwnlwj62LHd-5" value="loop" style="shape=umlFrame;dashed=1;pointerEvents=0;dropTarget=0;strokeColor=#B3B3B3;height=20;width=40" vertex="1" parent="1">
          <mxGeometry x="84" y="251" width="622" height="161" as="geometry" />
        </mxCell>
        <mxCell id="nFvOYQT18xwnlwj62LHd-6" value="[jika admin]" style="text;strokeColor=none;fillColor=none;align=center;verticalAlign=middle;whiteSpace=wrap;" vertex="1" parent="nFvOYQT18xwnlwj62LHd-5">
          <mxGeometry x="40" width="582" height="21.466666666666665" as="geometry" />
        </mxCell>
        <mxCell id="nFvOYQT18xwnlwj62LHd-7" value="alt" style="shape=umlFrame;dashed=1;pointerEvents=0;dropTarget=0;strokeColor=#B3B3B3;height=20;width=30" vertex="1" parent="1">
          <mxGeometry x="85" y="426" width="621" height="129" as="geometry" />
        </mxCell>
        <mxCell id="nFvOYQT18xwnlwj62LHd-8" value="" style="text;strokeColor=none;fillColor=none;align=center;verticalAlign=middle;whiteSpace=wrap;" vertex="1" parent="nFvOYQT18xwnlwj62LHd-7">
          <mxGeometry x="44.14691943127962" width="576.8530805687203" height="20" as="geometry" />
        </mxCell>
        <mxCell id="nFvOYQT18xwnlwj62LHd-9" value="lihatNilai()" style="verticalAlign=bottom;edgeStyle=elbowEdgeStyle;elbow=vertical;curved=0;rounded=0;endArrow=block;" edge="1" parent="1" source="nFvOYQT18xwnlwj62LHd-1" target="nFvOYQT18xwnlwj62LHd-2">
          <mxGeometry relative="1" as="geometry">
            <Array as="points">
              <mxPoint x="204" y="127" />
            </Array>
          </mxGeometry>
        </mxCell>
        <mxCell id="nFvOYQT18xwnlwj62LHd-10" value="tampilkanMenu()" style="verticalAlign=bottom;edgeStyle=elbowEdgeStyle;elbow=vertical;curved=0;rounded=0;endArrow=block;" edge="1" parent="1" source="nFvOYQT18xwnlwj62LHd-2" target="nFvOYQT18xwnlwj62LHd-3">
          <mxGeometry relative="1" as="geometry">
            <Array as="points">
              <mxPoint x="404" y="179" />
            </Array>
          </mxGeometry>
        </mxCell>
        <mxCell id="nFvOYQT18xwnlwj62LHd-11" value="tampilkanNilai" style="verticalAlign=bottom;edgeStyle=elbowEdgeStyle;elbow=vertical;curved=0;rounded=0;dashed=1;dashPattern=2 3;endArrow=block;" edge="1" parent="1" source="nFvOYQT18xwnlwj62LHd-3">
          <mxGeometry relative="1" as="geometry">
            <Array as="points">
              <mxPoint x="407" y="231" />
            </Array>
            <mxPoint x="307" y="231" as="targetPoint" />
          </mxGeometry>
        </mxCell>
        <mxCell id="nFvOYQT18xwnlwj62LHd-12" value="[jika admin]" style="verticalAlign=bottom;edgeStyle=elbowEdgeStyle;elbow=vertical;curved=0;rounded=0;endArrow=block;" edge="1" parent="1" source="nFvOYQT18xwnlwj62LHd-1" target="nFvOYQT18xwnlwj62LHd-2">
          <mxGeometry relative="1" as="geometry">
            <Array as="points">
              <mxPoint x="204" y="329" />
            </Array>
          </mxGeometry>
        </mxCell>
        <mxCell id="nFvOYQT18xwnlwj62LHd-13" value="tampilkan()" style="verticalAlign=bottom;edgeStyle=elbowEdgeStyle;elbow=vertical;curved=0;rounded=0;endArrow=block;" edge="1" parent="1" source="nFvOYQT18xwnlwj62LHd-2" target="nFvOYQT18xwnlwj62LHd-4">
          <mxGeometry relative="1" as="geometry">
            <Array as="points">
              <mxPoint x="511" y="367" />
              <mxPoint x="504" y="381" />
            </Array>
          </mxGeometry>
        </mxCell>
        <mxCell id="nFvOYQT18xwnlwj62LHd-14" value="tampilkan()" style="verticalAlign=bottom;edgeStyle=elbowEdgeStyle;elbow=vertical;curved=0;rounded=0;endArrow=block;exitX=-0.001;exitY=0.298;exitDx=0;exitDy=0;exitPerimeter=0;" edge="1" parent="1" target="nFvOYQT18xwnlwj62LHd-2">
          <mxGeometry relative="1" as="geometry">
            <Array as="points">
              <mxPoint x="255.62" y="455.56" />
              <mxPoint x="181.62" y="455.56" />
              <mxPoint x="240.12" y="473.56" />
            </Array>
            <mxPoint x="29.999000000000017" y="459.002" as="sourcePoint" />
            <mxPoint x="441.12" y="455.56" as="targetPoint" />
          </mxGeometry>
        </mxCell>
        <mxCell id="nFvOYQT18xwnlwj62LHd-16" value="" style="rounded=0;whiteSpace=wrap;html=1;" vertex="1" parent="1">
          <mxGeometry x="294" y="127" width="11" height="167" as="geometry" />
        </mxCell>
        <mxCell id="nFvOYQT18xwnlwj62LHd-17" value="" style="rounded=0;whiteSpace=wrap;html=1;" vertex="1" parent="1">
          <mxGeometry x="495" y="179" width="11" height="55" as="geometry" />
        </mxCell>
        <mxCell id="nFvOYQT18xwnlwj62LHd-18" value="" style="rounded=0;whiteSpace=wrap;html=1;" vertex="1" parent="1">
          <mxGeometry x="296" y="329" width="11" height="80" as="geometry" />
        </mxCell>
        <mxCell id="nFvOYQT18xwnlwj62LHd-19" value="" style="rounded=0;whiteSpace=wrap;html=1;" vertex="1" parent="1">
          <mxGeometry x="695" y="365" width="11" height="42" as="geometry" />
        </mxCell>
        <mxCell id="nFvOYQT18xwnlwj62LHd-20" value="" style="verticalAlign=bottom;edgeStyle=elbowEdgeStyle;elbow=vertical;curved=0;rounded=0;dashed=1;dashPattern=2 3;endArrow=block;exitX=0;exitY=0.75;exitDx=0;exitDy=0;" edge="1" parent="1" source="nFvOYQT18xwnlwj62LHd-19">
          <mxGeometry relative="1" as="geometry">
            <Array as="points">
              <mxPoint x="407" y="404" />
            </Array>
            <mxPoint x="495" y="404" as="sourcePoint" />
            <mxPoint x="307" y="404" as="targetPoint" />
          </mxGeometry>
        </mxCell>
        <mxCell id="nFvOYQT18xwnlwj62LHd-22" value="" style="rounded=0;whiteSpace=wrap;html=1;" vertex="1" parent="1">
          <mxGeometry x="295" y="455" width="11" height="65" as="geometry" />
        </mxCell>
        <mxCell id="nFvOYQT18xwnlwj62LHd-23" value="tampilkan()" style="verticalAlign=bottom;edgeStyle=elbowEdgeStyle;elbow=vertical;curved=0;rounded=0;endArrow=block;" edge="1" parent="1">
          <mxGeometry relative="1" as="geometry">
            <Array as="points" />
            <mxPoint x="295" y="524" as="sourcePoint" />
            <mxPoint x="495" y="522.61" as="targetPoint" />
          </mxGeometry>
        </mxCell>
        <mxCell id="nFvOYQT18xwnlwj62LHd-25" value="" style="rounded=0;whiteSpace=wrap;html=1;" vertex="1" parent="1">
          <mxGeometry x="495" y="521" width="11" height="34" as="geometry" />
        </mxCell>
      </root>
    </mxGraphModel>
  </diagram>
</mxfile>
